<svg width="603" height="98" viewBox="0 0 603 98" fill="none" xmlns="http://www.w3.org/2000/svg">
<g clip-path="url(#clip0_1680_5621)">
<path d="M40.5255 98.0001C27.449 98.0001 17.4257 94.8677 10.4554 88.6028C3.48513 82.338 0 73.4026 0 61.7968C0 50.4653 3.24751 41.4144 9.74253 34.6444C16.2376 27.8743 25.3248 24.4893 37.0043 24.4893C47.6037 24.4893 55.5749 27.3763 60.9178 33.1503C66.2607 38.9244 68.9322 47.1235 68.9322 57.7478V65.5427H21.6021C21.7132 68.3468 22.4046 71.0972 23.6327 73.6192C24.7045 75.7119 26.2782 77.505 28.2123 78.8375C30.171 80.1816 32.3722 81.1303 34.6929 81.6307C37.3534 82.2138 40.0705 82.497 42.7937 82.4751C45.2877 82.4804 47.774 82.197 50.2032 81.6307C52.4951 81.1356 54.7315 80.4101 56.8782 79.4654C58.5656 78.7115 60.2034 77.8508 61.7819 76.8887C63.294 75.9577 64.5038 75.1349 65.4542 74.4203H67.7441V92.2405L62.9052 94.1892C60.9425 94.9401 58.9283 95.548 56.8782 96.008C54.5099 96.6231 52.1081 97.1003 49.6847 97.4371C46.648 97.834 43.5878 98.0221 40.5255 98.0001ZM47.6758 52.3996C47.8226 48.6277 46.7047 44.9152 44.5003 41.8547C43.3443 40.5928 41.9168 39.6114 40.3261 38.9848C38.7354 38.3583 37.0232 38.1031 35.3194 38.2387C33.5017 38.1372 31.6833 38.4244 29.9849 39.0815C28.2865 39.7385 26.7471 40.7503 25.4688 42.0496C22.9895 44.9268 21.618 48.5977 21.6021 52.3996H47.6758Z" fill="#2886BB"/>
<path d="M144.907 96.1379H123.305V61.7318C123.305 58.9314 123.189 56.1454 122.959 53.3739C122.88 51.2671 122.449 49.1885 121.684 47.2245C121.036 45.7631 119.897 44.5756 118.466 43.8684C116.684 43.1174 114.759 42.7699 112.828 42.8507C110.983 42.864 109.155 43.2011 107.427 43.8467C105.334 44.634 103.352 45.6893 101.53 46.9864V96.1379H79.9276V26.6978H101.53V34.4061C104.682 31.6595 108.148 29.2972 111.855 27.369C115.357 25.6305 119.225 24.7616 123.132 24.8357C130.203 24.8357 135.611 27.0731 139.355 31.548C143.099 36.0229 144.971 42.5187 144.971 51.0354L144.907 96.1379Z" fill="#2886BB"/>
<path d="M181.954 98.0001C177.088 98.0266 172.236 97.4668 167.502 96.3328C163.619 95.4535 159.844 94.1463 156.248 92.4353V74.1605H158.041C159.063 74.94 160.237 75.8061 161.562 76.7588C163.288 77.9285 165.126 78.9223 167.049 79.7252C169.241 80.7324 171.519 81.5439 173.853 82.1503C176.541 82.8494 179.308 83.1916 182.084 83.168C184.82 83.2172 187.541 82.7395 190.098 81.7606C191.085 81.4855 191.956 80.8986 192.583 80.087C193.209 79.2755 193.558 78.2829 193.576 77.2568C193.624 76.5702 193.508 75.8821 193.237 75.2495C192.967 74.6169 192.55 74.058 192.021 73.6192C190.104 72.4506 187.987 71.6502 185.778 71.259C184.136 70.8404 182.062 70.4001 179.556 69.9382C177.279 69.5263 175.028 68.9768 172.817 68.2926C168.088 67.043 163.83 64.4306 160.568 60.7791C157.71 57.0713 156.256 52.4683 156.464 47.7875C156.478 44.7683 157.219 41.7971 158.624 39.1265C160.148 36.2604 162.279 33.7626 164.867 31.8078C167.943 29.5479 171.395 27.8543 175.063 26.8061C179.513 25.5187 184.128 24.8985 188.759 24.9656C193.257 24.9246 197.745 25.4115 202.131 26.4163C205.673 27.2034 209.121 28.3722 212.413 29.9024V47.4844H210.685C209.561 46.6432 208.392 45.8626 207.185 45.1459C205.67 44.2239 204.105 43.3854 202.498 42.6342C200.598 41.7245 198.616 40.9995 196.579 40.4689C194.328 39.9313 192.023 39.6624 189.709 39.6678C186.986 39.5853 184.28 40.1336 181.803 41.2701C180.891 41.5822 180.095 42.1623 179.517 42.9347C178.939 43.7071 178.606 44.6361 178.563 45.6006C178.532 46.2988 178.66 46.995 178.937 47.6364C179.214 48.2778 179.632 48.8478 180.161 49.3032C182.262 50.6345 184.603 51.5394 187.052 51.9665C188.896 52.414 191.056 52.8542 193.533 53.2873C195.883 53.7077 198.2 54.2937 200.467 55.0412C204.796 56.2601 208.691 58.6853 211.7 62.035C214.408 65.5752 215.771 69.9653 215.545 74.4203C215.546 77.6571 214.76 80.8454 213.256 83.7093C211.717 86.673 209.495 89.2264 206.775 91.1578C203.61 93.4435 200.072 95.1581 196.32 96.2245C191.64 97.4999 186.803 98.0978 181.954 98.0001Z" fill="#2886BB"/>
<path d="M261.385 98.0001C248.309 98.0001 238.285 94.8677 231.315 88.6028C224.345 82.338 220.831 73.4026 220.773 61.7968C220.773 50.4508 224.021 41.4 230.516 34.6444C237.011 27.8887 246.098 24.5037 257.777 24.4893C268.391 24.4893 276.37 27.3763 281.713 33.1503C287.055 38.9244 289.727 47.1235 289.727 57.7478V65.5427H242.375C242.473 68.3764 243.165 71.1578 244.406 73.7058C245.478 75.7985 247.051 77.5916 248.985 78.9241C250.944 80.2682 253.145 81.2169 255.466 81.7173C258.126 82.3007 260.844 82.584 263.567 82.5617C266.061 82.567 268.547 82.2836 270.976 81.7173C273.268 81.2225 275.505 80.497 277.651 79.552C279.339 78.7981 280.977 77.9375 282.555 76.9753C284.067 76.0443 285.277 75.2215 286.227 74.5069H288.517V92.2405L283.678 94.1892C281.723 94.9398 279.716 95.5476 277.673 96.008C275.284 96.6323 272.86 97.1167 270.415 97.4588C267.42 97.8425 264.404 98.0233 261.385 98.0001ZM268.535 52.3996C268.684 48.6275 267.566 44.9144 265.36 41.8547C264.205 40.5915 262.777 39.6092 261.186 38.9825C259.595 38.3559 257.883 38.1015 256.179 38.2387C254.351 38.1278 252.52 38.4105 250.809 39.0678C249.099 39.7251 247.549 40.7418 246.264 42.0496C243.756 44.9232 242.361 48.6036 242.332 52.4212L268.535 52.3996Z" fill="#2886BB"/>
<path d="M383.437 96.1379V61.4937C383.437 58.0725 383.372 55.1855 383.242 52.8326C383.195 50.87 382.815 48.9297 382.119 47.0946C381.585 45.699 380.564 44.5449 379.246 43.8467C377.529 43.0815 375.657 42.7328 373.78 42.8291C372.095 42.8361 370.43 43.2052 368.898 43.9117C367.067 44.7688 365.318 45.7907 363.671 46.9647V96.1379H342.069V61.4937C342.069 58.1158 341.997 55.2288 341.853 52.8326C341.786 50.8561 341.399 48.9036 340.708 47.0513C340.172 45.6567 339.152 44.5031 337.835 43.8034C336.157 43.0939 334.35 42.7465 332.53 42.7838C330.71 42.8211 328.918 43.2423 327.271 44.02C325.56 44.8631 323.914 45.833 322.346 46.9214V96.1379H300.744V26.6978H322.346V34.4062C325.413 31.7203 328.75 29.3618 332.305 27.369C335.542 25.6491 339.161 24.7776 342.825 24.8357C346.746 24.755 350.609 25.8073 353.95 27.8671C357.275 30.0062 359.85 33.1325 361.316 36.8096C364.858 33.3885 368.788 30.3946 373.024 27.8887C376.41 25.8851 380.261 24.8097 384.193 24.7707C387.145 24.7161 390.08 25.2383 392.834 26.3081C395.338 27.3002 397.563 28.891 399.314 30.9417C401.288 33.2618 402.759 35.9679 403.635 38.8883C404.706 42.8006 405.193 46.8501 405.082 50.9055V96.1379H383.437Z" fill="#2886BB"/>
<path d="M489.179 60.4543C489.179 71.4971 486.378 80.4253 480.775 87.2386C478.332 90.4415 475.178 93.0305 471.564 94.8005C467.949 96.5706 463.974 97.4733 459.951 97.437C456.909 97.4917 453.875 97.1052 450.943 96.2894C448.117 95.3911 445.399 94.1782 442.842 92.6734L441.913 96.1379H421.24V0H442.842V33.973C445.805 31.3965 449.06 29.1798 452.542 27.369C456.093 25.618 460.012 24.7491 463.969 24.8356C467.625 24.6808 471.26 25.4672 474.528 27.1198C477.795 28.7724 480.585 31.2361 482.633 34.2762C486.982 40.5843 489.164 49.3104 489.179 60.4543ZM467.037 60.9523C467.037 54.0667 465.985 49.1444 463.883 46.1852C462.759 44.7105 461.284 43.5416 459.594 42.7851C457.903 42.0286 456.051 41.7087 454.205 41.8546C452.246 41.8635 450.3 42.1776 448.437 42.7857C446.459 43.4219 444.577 44.3252 442.842 45.4706V80.1149C444.23 80.6773 445.681 81.0699 447.163 81.2841C448.594 81.4817 450.038 81.5829 451.483 81.5873C453.704 81.7455 455.931 81.3566 457.968 80.4546C460.005 79.5526 461.791 78.1648 463.17 76.4123C465.733 72.9912 467.022 67.8378 467.037 60.9523Z" fill="#2886BB"/>
<path d="M522.576 96.1379H500.973V0H522.576V96.1379Z" fill="#2886BB"/>
<path d="M574.615 97.9999C561.538 97.9999 551.515 94.8675 544.545 88.6026C537.575 82.3378 534.089 73.4097 534.089 61.8183C534.089 50.4723 537.337 41.4215 543.832 34.6658C550.327 27.9102 559.414 24.5252 571.094 24.5107C581.693 24.5107 589.672 27.3978 595.029 33.1718C600.386 38.9459 603.058 47.145 603.043 57.7692V65.5642H555.648C555.752 68.3997 556.451 71.1813 557.7 73.7273C558.772 75.8205 560.345 77.6138 562.28 78.9456C564.239 80.2892 566.44 81.2379 568.761 81.7388C571.421 82.3226 574.138 82.6058 576.862 82.5832C579.356 82.5885 581.842 82.3051 584.271 81.7388C586.563 81.2432 588.799 80.5178 590.946 79.5735C592.633 78.8182 594.27 77.9576 595.85 76.9968C597.34 76.0658 598.572 75.243 599.522 74.5284H601.812V92.2403L596.973 94.189C595.01 94.9394 592.996 95.5473 590.946 96.0079C588.564 96.6314 586.148 97.1158 583.709 97.4586C580.694 97.8451 577.655 98.0259 574.615 97.9999ZM581.744 52.3994C581.889 48.6277 580.771 44.9158 578.568 41.8545C577.412 40.5926 575.985 39.6112 574.394 38.9847C572.803 38.3581 571.091 38.103 569.387 38.2385C567.562 38.1307 565.736 38.415 564.029 39.0722C562.323 39.7294 560.777 40.7445 559.493 42.0494C556.987 44.924 555.593 48.6038 555.562 52.421L581.744 52.3994Z" fill="#2886BB"/>
</g>
<defs>
<clipPath id="clip0_1680_5621">
<rect width="603" height="98" fill="white"/>
</clipPath>
</defs>
</svg>
