<svg width="300" height="250" viewBox="0 0 300 250" fill="none" xmlns="http://www.w3.org/2000/svg">
  <g clip-path="url(#clip0)">
    <path opacity="0.49" d="M0 170V192C0 192 0 225 50 237.5C100 250 300 205 300 205V170H0Z" fill="#2886BB"/>
    <path opacity="0.49" d="M300 217C300 217 287.5 250 250 250C212.5 250 121.05 217 61.4 182C1.75 147 195.61 182 195.61 182L300 217Z" fill="#2886BB"/>
    <path opacity="0.38" d="M0 182V192C32.55 215.5 71.31 231.25 112.5 237.5C186.1 248.21 243.11 223.7 262.5 214L300 182H0Z" fill="#2886BB"/>
    <path d="M0 0V192C0 192 62.5 180 150 217C237.5 254 300 217 300 217V0H0Z" fill="url(#paint0_linear)"/>
  </g>
  <defs>
    <linearGradient id="paint0_linear" x1="13.74" y1="163.7" x2="303.96" y2="35.59" gradientUnits="userSpaceOnUse">
      <stop stop-color="#1F5170"/>
      <stop offset="0.6" stop-color="#52ABD3"/>
      <stop offset="1" stop-color="#0079C0"/>
    </linearGradient>
    <clipPath id="clip0">
      <rect width="300" height="250" fill="white"/>
    </clipPath>
  </defs>
</svg>
